<svg width="111" height="111" viewBox="0 0 111 111" fill="none" xmlns="http://www.w3.org/2000/svg">
<path d="M92.166 66.9402L97.6436 57.4326L66.1619 57.4326C64.7969 57.4323 63.456 57.7919 62.2742 58.475C61.0925 59.1582 60.1117 60.1407 59.4308 61.3237L53.9676 70.8139L85.4666 70.8139C86.8252 70.8139 88.1598 70.4558 89.3359 69.7758C90.5121 69.0957 91.4882 68.1177 92.166 66.9402V66.9402Z" fill="#6738EB"/>
<path d="M52.2099 66.92L57.6759 57.4327L26.1972 57.4327C24.8316 57.4316 23.49 57.7907 22.3076 58.4739C21.1253 59.1571 20.1441 60.1401 19.4631 61.3237L14 70.814L45.4758 70.814C46.8415 70.8139 48.183 70.4539 49.3652 69.7703C50.5474 69.0867 51.5286 68.1036 52.2099 66.92V66.92Z" fill="#6738EB"/>
<path d="M59.4452 50.5047L53.9676 41L85.4666 41C86.8265 40.9993 88.1625 41.3573 89.3397 42.038C90.517 42.7186 91.4939 43.6978 92.1718 44.8766L97.6436 54.3813L66.1474 54.3813C64.7883 54.3807 63.4532 54.022 62.2767 53.3415C61.1001 52.661 60.1235 51.6826 59.4452 50.5047Z" fill="#6738EB"/>
<path d="M19.5995 50.516L14.1219 41.0112L45.6209 41.0112C46.9808 41.0105 48.3168 41.3686 49.494 42.0492C50.6713 42.7298 51.6482 43.709 52.3261 44.8878L57.7979 54.3926L26.3017 54.3926C24.9425 54.3919 23.6075 54.0332 22.4309 53.3527C21.2544 52.6722 20.2778 51.6938 19.5995 50.516Z" fill="#6738EB"/>
</svg>
