<svg width="111" height="111" viewBox="0 0 111 111" fill="none" xmlns="http://www.w3.org/2000/svg">
<path d="M25.5076 20.4776L16 15V46.4816C15.9997 47.8466 16.3593 49.1876 17.0424 50.3693C17.7255 51.5511 18.7081 52.5318 19.8911 53.2128L29.3813 58.6759V27.1769C29.3813 25.8183 29.0232 24.4837 28.3432 23.3076C27.6631 22.1315 26.6851 21.1554 25.5076 20.4776V20.4776Z" fill="#51CB7B"/>
<path d="M86.9569 46.1661L96.56 40.7087L69.0013 24.8405C67.8179 24.1581 66.4746 23.8018 65.1085 23.8079C63.7424 23.814 62.4024 24.1823 61.2251 24.8753L51.9346 30.3384L79.2704 46.1371C80.4377 46.8122 81.7613 47.1701 83.1098 47.1751C84.4583 47.1802 85.7846 46.8323 86.9569 46.1661Z" fill="#51CB7B"/>
<path d="M33.9385 86.4575L33.9616 97.4098L61.2077 81.6458C62.3896 80.9617 63.3705 79.9783 64.0515 78.7946C64.7326 77.6109 65.0898 76.2687 65.0871 74.903L65.0611 63.9565L37.8179 79.7205C36.6361 80.4032 35.6551 81.3855 34.974 82.5683C34.2929 83.7511 33.9357 85.0926 33.9385 86.4575V86.4575Z" fill="#51CB7B"/>
</svg>
