<svg width="150" height="150" viewBox="0 0 150 150" fill="none" xmlns="http://www.w3.org/2000/svg">
<path d="M36.112 29.9781L24 23V63.1053C23.9996 64.8442 24.4577 66.5525 25.328 68.058C26.1982 69.5634 27.4499 70.8129 28.957 71.6804L41.0468 78.64V38.5125C41.0468 36.7818 40.5907 35.0816 39.7243 33.5833C38.858 32.085 37.612 30.8415 36.112 29.9781V29.9781Z" fill="white"/>
<path d="M114.394 62.7032L126.628 55.751L91.5199 35.536C90.0123 34.6667 88.301 34.2128 86.5607 34.2206C84.8204 34.2283 83.1133 34.6975 81.6135 35.5803L69.7781 42.5399L104.602 62.6663C106.089 63.5264 107.775 63.9822 109.493 63.9887C111.211 63.9952 112.901 63.552 114.394 62.7032Z" fill="white"/>
<path d="M46.8521 114.032L46.8815 127.984L81.5911 107.902C83.0968 107.031 84.3463 105.778 85.2139 104.27C86.0815 102.762 86.5366 101.052 86.5332 99.3122L86.5001 85.3672L51.7942 105.449C50.2886 106.319 49.0389 107.57 48.1712 109.077C47.3035 110.584 46.8485 112.293 46.8521 114.032V114.032Z" fill="white"/>
</svg>
