<svg width="150" height="150" viewBox="0 0 150 150" fill="none" xmlns="http://www.w3.org/2000/svg">
<path d="M45.0766 36.2298L32.9646 29.2517V69.3571C32.9642 71.0959 33.4223 72.8042 34.2926 74.3097C35.1628 75.8151 36.4145 77.0646 37.9216 77.9321L50.0114 84.8917V44.7642C50.0114 43.0335 49.5553 41.3333 48.6889 39.835C47.8226 38.3367 46.5766 37.0932 45.0766 36.2298V36.2298Z" fill="white"/>
<path d="M104.35 114.021L116.436 120.984V80.8826C116.438 79.143 115.98 77.4338 115.11 75.9276C114.239 74.4213 112.987 73.1714 111.479 72.3038L99.3894 65.3442V105.442C99.3895 107.182 99.8481 108.891 100.719 110.397C101.59 111.903 102.842 113.153 104.35 114.021V114.021Z" fill="white"/>
<path d="M26.1047 81.2071L14 88.1667L48.669 108.323C50.1698 109.195 51.8741 109.656 53.61 109.66C55.3459 109.664 57.0523 109.21 58.557 108.345L70.6543 101.385L35.9853 81.2292C34.4853 80.3583 32.7825 79.8977 31.048 79.8938C29.3135 79.8899 27.6085 80.3429 26.1047 81.2071V81.2071Z" fill="white"/>
<path d="M123.359 68.9549L135.592 62.0027L100.485 41.7877C98.9769 40.9184 97.2656 40.4645 95.5253 40.4723C93.785 40.48 92.0779 40.9492 90.5781 41.832L78.7427 48.7916L113.567 68.918C115.054 69.7781 116.74 70.2339 118.458 70.2404C120.176 70.2469 121.865 69.8037 123.359 68.9549Z" fill="white"/>
<path d="M55.8167 120.284L55.8461 134.236L90.5557 114.154C92.0614 113.282 93.3109 112.029 94.1785 110.522C95.0461 109.014 95.5012 107.304 95.4978 105.564L95.4647 91.6189L60.7588 111.701C59.2532 112.571 58.0035 113.822 57.1358 115.329C56.2681 116.836 55.8131 118.545 55.8167 120.284V120.284Z" fill="white"/>
<path d="M93.5952 29.9745L93.5657 16L60.5748 35.1786C59.0765 36.0497 57.8335 37.2995 56.9706 38.8026C56.1077 40.3057 55.6552 42.0094 55.6585 43.7426L55.6917 57.7134L88.6788 38.5348C90.1772 37.6646 91.4202 36.4155 92.2832 34.9129C93.1461 33.4104 93.5986 31.7073 93.5952 29.9745V29.9745Z" fill="white"/>
</svg>
