<svg width="150" height="150" viewBox="0 0 150 150" fill="none" xmlns="http://www.w3.org/2000/svg">
<path d="M121.578 89.0459L128.556 76.9338L88.4506 76.9338C86.7117 76.9335 85.0034 77.3915 83.4979 78.2618C81.9925 79.1321 80.743 80.3838 79.8755 81.8908L72.9159 93.9806L113.043 93.9806C114.774 93.9806 116.474 93.5245 117.973 92.6582C119.471 91.7918 120.714 90.5459 121.578 89.0459V89.0459Z" fill="white"/>
<path d="M70.6767 89.0201L77.64 76.9339L37.5383 76.9339C35.7987 76.9325 34.0896 77.39 32.5833 78.2604C31.0771 79.1307 29.8271 80.383 28.9596 81.8908L22 93.9807L62.098 93.9807C63.8377 93.9806 65.5467 93.522 67.0527 92.6511C68.5588 91.7802 69.8088 90.5279 70.6767 89.0201V89.0201Z" fill="white"/>
<path d="M79.8939 68.1083L72.9159 56L113.043 56C114.776 55.9991 116.478 56.4552 117.977 57.3223C119.477 58.1894 120.722 59.4368 121.585 60.9385L128.556 73.0469L88.4321 73.0469C86.7006 73.046 84.9998 72.5891 83.501 71.7222C82.0022 70.8552 80.7581 69.6088 79.8939 68.1083Z" fill="white"/>
<path d="M29.1332 68.1228L22.1552 56.0144L62.2827 56.0144C64.015 56.0135 65.7169 56.4696 67.2167 57.3367C68.7164 58.2038 69.9609 59.4512 70.8245 60.9529L77.7952 73.0613L37.6714 73.0613C35.9399 73.0604 34.2391 72.6035 32.7403 71.7366C31.2414 70.8696 29.9973 69.6232 29.1332 68.1228Z" fill="white"/>
</svg>
