<svg width="111" height="111" viewBox="0 0 111 111" fill="none" xmlns="http://www.w3.org/2000/svg">
<path d="M32.3943 24.8799L22.8867 19.4023V50.884C22.8864 52.249 23.246 53.5899 23.9291 54.7716C24.6123 55.9534 25.5948 56.9342 26.7778 57.6151L36.268 63.0783V31.5793C36.268 30.2207 35.91 28.8861 35.2299 27.71C34.5498 26.5338 33.5718 25.5577 32.3943 24.8799V24.8799Z" fill="#FF4FA3"/>
<path d="M78.9227 85.9438L88.4101 91.4098V59.9311C88.4112 58.5655 88.0521 57.2239 87.3689 56.0415C86.6857 54.8592 85.7027 53.878 84.519 53.197L75.0288 47.7339V79.2097C75.0289 80.5754 75.3889 81.9169 76.0725 83.0991C76.7561 84.2813 77.7392 85.2625 78.9227 85.9438V85.9438Z" fill="#FF4FA3"/>
<path d="M17.5018 60.1859L8 65.649L35.2142 81.4709C36.3923 82.1556 37.7301 82.5178 39.0928 82.5208C40.4555 82.5239 41.7949 82.1677 42.9761 81.4883L52.4721 76.0251L25.2579 60.2033C24.0804 59.5196 22.7437 59.1581 21.3822 59.155C20.0207 59.152 18.6823 59.5075 17.5018 60.1859V60.1859Z" fill="#FF4FA3"/>
<path d="M93.8436 50.5682L103.447 45.1108L75.8881 29.2426C74.7046 28.5602 73.3613 28.2039 71.9952 28.21C70.6291 28.2161 69.2891 28.5844 68.1118 29.2774L58.8213 34.7405L86.1571 50.5392C87.3244 51.2143 88.648 51.5722 89.9965 51.5772C91.345 51.5823 92.6713 51.2344 93.8436 50.5682Z" fill="#FF4FA3"/>
<path d="M40.8252 90.8599L40.8483 101.812L68.0944 86.0481C69.2764 85.3641 70.2572 84.3807 70.9382 83.197C71.6193 82.0132 71.9765 80.671 71.9739 79.3054L71.9478 68.3589L44.7047 84.1229C43.5228 84.8056 42.5418 85.7879 41.8607 86.9707C41.1796 88.1535 40.8224 89.495 40.8252 90.8599V90.8599Z" fill="#FF4FA3"/>
<path d="M70.4805 19.9696L70.4573 9L44.5604 24.0547C43.3842 24.7385 42.4085 25.7195 41.7312 26.8995C41.0538 28.0794 40.6986 29.4167 40.7012 30.7772L40.7273 41.7439L66.6213 26.6892C67.7974 26.0061 68.7732 25.0256 69.4506 23.8462C70.128 22.6667 70.4832 21.3298 70.4805 19.9696V19.9696Z" fill="#FF4FA3"/>
</svg>
